<svg id="Layer_1" data-name="Layer 1" xmlns="http://www.w3.org/2000/svg" viewBox="0 0 512 512"><defs><style>.cls-1{fill:#ffa726;}.cls-2{fill:#0090d1;}</style></defs><path class="cls-1" d="M94,214c-17.86-45.59,3.89-97.59,48.48-115.94s95.39,3.66,113.25,49.25a90.21,90.21,0,0,1,5.93,30.88,109.59,109.59,0,0,1,24.24,4.05l48.54-55.84c6.5-7.47,1.85-19.19-7.85-20l-71.74-5.84L250.5,27a11.7,11.7,0,0,0-19.37-8.43l-55,47.77L122.3,17.58c-7.24-6.52-18.78-1.76-19.61,8.1L96.75,99.09l-71.91,4.65c-9.72.62-14.59,12.26-8.3,19.85l46.52,56.06-47.84,55.2c-6.5,7.47-1.85,19.18,7.85,20L85.22,260a100.41,100.41,0,0,1,27.14-17.2A87.57,87.57,0,0,1,94,214Zm20.83-59.5c-12.5,29.88-2,63.89,23.33,81.39a97.48,97.48,0,0,1,21.6-.74,112.58,112.58,0,0,1,80.35-55.94c-.53-25.42-15.22-49.47-39.53-60-33.1-14.39-71.57,1.42-85.75,35.33Z"/><path class="cls-2" d="M444.12,311.41a53.83,53.83,0,0,0,.75-5.44c0-34.29-27-62.17-60.13-62.17a58.73,58.73,0,0,0-32,9.71c-16.53-37.69-53.08-64.12-95.73-64.12-58.06,0-105.23,48.67-105.23,108.81,0,2.91.66,5.63.85,8.45-46.6,3.59-83.53,43.42-83.53,92.58,0,51.48,40.4,93.25,90.2,93.25H414.81c49.79,0,90.19-41.77,90.19-93.25,0-40.9-25.55-75.19-60.88-87.82Z"/></svg>