<svg id="Layer_1" data-name="Layer 1" xmlns="http://www.w3.org/2000/svg" viewBox="0 0 512 512"><defs><style>.cls-1{fill:#0090d1;}.cls-2{fill:#1490cf;}</style></defs><path class="cls-1" d="M103.8,363.59c-11.52,40-36,50.76-36,78.93,0,24.93,19.35,45.09,43.2,45.09s43.2-20.16,43.2-45.09c0-28.26-24.48-38.79-36-78.93A7.43,7.43,0,0,0,103.8,363.59Zm144,0c-11.52,40-36,50.76-36,78.93,0,24.93,19.35,45.09,43.2,45.09s43.2-20.16,43.2-45.09c0-28.26-24.48-38.79-36-78.93A7.43,7.43,0,0,0,247.8,363.59Zm144,0c-11.52,40-36,50.76-36,78.93,0,24.93,19.35,45.09,43.2,45.09s43.2-20.16,43.2-45.09c0-28.26-24.48-38.79-36-78.93A7.43,7.43,0,0,0,391.8,363.59Z"/><path class="cls-2" d="M416,147c-.6,0-1.1.2-1.6.2A78.09,78.09,0,0,0,416,131a80,80,0,0,0-80-80c-24.6,0-46.3,11.3-61,28.8C256.4,43.8,219.3,19,176,19A111.94,111.94,0,0,0,64,131a113.72,113.72,0,0,0,2.1,21.2C27.8,164.8,0,200.5,0,243a96,96,0,0,0,96,96H416a96,96,0,0,0,0-192Z"/></svg>