<svg id="Layer_1" data-name="Layer 1" xmlns="http://www.w3.org/2000/svg" viewBox="0 0 512 512"><defs><style>.cls-1{fill:#ffa726;}</style></defs><path class="cls-1" d="M256,161.92A94.08,94.08,0,1,0,350.08,256,94.23,94.23,0,0,0,256,161.92Zm241.47,78.89-92.8-46.35,32.83-98.4c4.41-13.32-8.24-26-21.47-21.46l-98.39,32.83-46.45-92.9a17,17,0,0,0-30.38,0l-46.35,92.8L96,74.5C82.64,70.09,70,82.74,74.5,96l32.83,98.39-92.8,46.45a17,17,0,0,0,0,30.38l92.8,46.35L74.5,416C70.09,429.36,82.74,442,96,437.5l98.39-32.83,46.35,92.8a17,17,0,0,0,30.38,0l46.36-92.8,98.39,32.83c13.33,4.41,26-8.24,21.46-21.47l-32.83-98.39,92.81-46.35a17,17,0,0,0,.19-30.48ZM344.69,344.69a125.43,125.43,0,1,1,0-177.38A125.58,125.58,0,0,1,344.69,344.69Z"/></svg>