<svg id="Layer_1" data-name="Layer 1" xmlns="http://www.w3.org/2000/svg" viewBox="0 0 310 310"><defs><style>.cls-1{fill:#9a9da0;}.cls-2{fill:#0090d1;}</style></defs><path class="cls-1" d="M170.67,102.54A80.19,80.19,0,0,1,57.36,9.87a80.19,80.19,0,1,0,116,91.25C172.45,101.6,171.57,102.08,170.67,102.54Z"/><path class="cls-2" d="M256.19,186.59c.21-1.12.37-2.26.47-3.4,0-21.45-16.89-38.9-37.62-38.9a36.83,36.83,0,0,0-20,6.08c-10.34-23.58-33.21-40.12-59.89-40.12-36.32,0-65.83,30.45-65.83,68.08,0,1.82.41,3.52.53,5.28-29.15,2.25-52.26,27.17-52.26,57.92,0,32.21,25.28,58.34,56.43,58.34H237.85c31.15,0,56.43-26.13,56.43-58.34a58,58,0,0,0-38.09-54.94Z"/></svg>