<svg id="Layer_1" data-name="Layer 1" xmlns="http://www.w3.org/2000/svg" viewBox="0 0 310 310"><defs><style>.cls-1{fill:#92d2e8;}.cls-2{fill:#4ba1bf;}.cls-3{fill:#0090d1;}</style></defs><path class="cls-1" d="M130.63,64a16,16,0,0,0,.24-1.71c0-10.78-8.49-19.54-18.9-19.54a18.44,18.44,0,0,0-10.06,3C96.71,33.91,85.22,25.6,71.81,25.6c-18.25,0-33.08,15.3-33.08,34.21,0,.91.21,1.77.27,2.66C24.35,63.6,12.74,76.12,12.74,91.57c0,16.19,12.7,29.32,28.35,29.32h80.33c15.65,0,28.35-13.13,28.35-29.32A29.15,29.15,0,0,0,130.63,64Z"/><path class="cls-2" d="M278.12,48.36a16.74,16.74,0,0,0,.24-1.71c0-10.78-8.49-19.55-18.9-19.55a18.53,18.53,0,0,0-10.06,3.06C244.2,18.31,232.71,10,219.3,10c-18.25,0-33.08,15.3-33.08,34.21,0,.91.21,1.77.27,2.65C171.84,48,160.23,60.51,160.23,76c0,16.18,12.7,29.31,28.35,29.31h80.33c15.65,0,28.35-13.13,28.35-29.31a29.15,29.15,0,0,0-19.14-27.61Z"/><path class="cls-3" d="M258.22,183.91a34.43,34.43,0,0,0,.48-3.49c0-22-17.31-39.86-38.55-39.86a37.62,37.62,0,0,0-20.52,6.22c-10.6-24.16-34-41.11-61.37-41.11-37.23,0-67.47,31.21-67.47,69.77,0,1.86.42,3.61.54,5.42-29.88,2.3-53.55,27.83-53.55,59.35,0,33,25.9,59.79,57.83,59.79H239.43c31.92,0,57.82-26.78,57.82-59.79a59.45,59.45,0,0,0-39-56.3Z"/></svg>