<svg id="Layer_1" data-name="Layer 1" xmlns="http://www.w3.org/2000/svg" viewBox="0 0 310 310"><defs><style>.cls-1{fill:#1490cf;}.cls-2{fill:none;stroke:#2e3192;stroke-linecap:round;stroke-miterlimit:10;stroke-width:10px;}</style></defs><path class="cls-1" d="M261.52,89.25a32.73,32.73,0,0,0,.51-3.69c0-23.25-18.31-42.16-40.78-42.16A39.79,39.79,0,0,0,199.55,50c-11.21-25.57-36-43.49-64.92-43.49-39.38,0-71.37,33-71.37,73.79,0,2,.45,3.82.58,5.74C32.23,88.46,7.19,115.47,7.19,148.81c0,34.92,27.4,63.24,61.17,63.24H241.65c33.76,0,61.16-28.32,61.16-63.24a62.91,62.91,0,0,0-41.29-59.56Z"/><line class="cls-2" x1="69.29" y1="229.83" x2="240.71" y2="229.83"/><line class="cls-2" x1="121.67" y1="246.5" x2="228.81" y2="246.5"/><line class="cls-2" x1="80" y1="263.17" x2="187.14" y2="263.17"/><line class="cls-2" x1="124.05" y1="279.83" x2="231.19" y2="279.83"/><line class="cls-2" x1="114.52" y1="296.5" x2="221.67" y2="296.5"/></svg>