<svg id="Layer_1" data-name="Layer 1" xmlns="http://www.w3.org/2000/svg" viewBox="0 0 310 310"><defs><style>.cls-1{fill:#0caae2;}.cls-2{fill:#106e9e;}.cls-3{fill:#1490cf;}</style></defs><path class="cls-1" d="M80.57,211.2c-4.91,11.63-12.66,14-13.67,22.46a13.38,13.38,0,0,0,11.38,15.12c7.17.86,13.72-4.51,14.62-12,1-8.51-6-12.56-8-25.05a2.25,2.25,0,0,0-2.52-1.94A2.28,2.28,0,0,0,80.57,211.2ZM188.94,259c-5.34,12.64-13.77,15.21-14.87,24.43-1,8.15,4.57,15.51,12.37,16.44s14.93-4.91,15.9-13.06c1.11-9.25-6.49-13.66-8.69-27.25a2.45,2.45,0,0,0-4.71-.56Zm-16.29-42.4c-5.39,12.78-13.92,15.37-15,24.7-1,8.24,4.62,15.68,12.51,16.62s15.09-5,16.08-13.21c1.11-9.35-6.57-13.8-8.79-27.54a2.48,2.48,0,0,0-4.77-.57ZM128,212.88c-5.39,12.77-13.91,15.36-15,24.68-1,8.24,4.61,15.67,12.5,16.62s15.08-5,16.07-13.21c1.11-9.34-6.57-13.79-8.79-27.52a2.47,2.47,0,0,0-4.76-.57Zm12.1,45c-4.94,11.72-12.76,14.09-13.78,22.64-.9,7.56,4.23,14.38,11.47,15.24s13.83-4.55,14.74-12.11c1-8.57-6-12.65-8.06-25.25a2.27,2.27,0,0,0-4.37-.52ZM89,255.3c-5,11.72-12.77,14.09-13.79,22.64-.9,7.56,4.24,14.38,11.47,15.25s13.84-4.55,14.74-12.12c1-8.57-6-12.65-8-25.25a2.27,2.27,0,0,0-2.55-1.95A2.23,2.23,0,0,0,89,255.3Zm120-40.26c-4.83,11.44-12.46,13.76-13.46,22.1a12.9,12.9,0,1,0,25.59,3.06c1-8.37-5.87-12.35-7.86-24.65a2.22,2.22,0,0,0-4.27-.51Z"/><path class="cls-2" d="M259.36,70.09c-.28,0-.52.1-.75.1a36.65,36.65,0,0,0,.75-7.61,37.41,37.41,0,0,0-66.2-24,52.4,52.4,0,0,0-99.06,24v0a53.73,53.73,0,0,0,1,10,44.95,44.95,0,0,0,14,87.69H259.36a45.07,45.07,0,0,0,0-90.14Z"/><path class="cls-3" d="M222.57,108.33c-.31,0-.57.11-.83.11a40.63,40.63,0,0,0,.83-8.45A41.57,41.57,0,0,0,149,73.28,58.23,58.23,0,0,0,39,99.92V100a59.59,59.59,0,0,0,1.1,11.06,49.95,49.95,0,0,0,15.6,97.44H222.57a50.08,50.08,0,0,0,0-100.16Z"/></svg>