<svg id="Layer_1" data-name="Layer 1" xmlns="http://www.w3.org/2000/svg" viewBox="0 0 310 310"><defs><style>.cls-1{fill:#ffa726;}.cls-2{fill:#0caae2;}.cls-3{fill:#1490cf;}</style></defs><path class="cls-1" d="M179.47,71.7a37,37,0,1,0,37,37h0A37.08,37.08,0,0,0,179.47,71.7Zm95,31.05L238,84.51,250.9,45.78a6.67,6.67,0,0,0-8.45-8.45L203.73,50.25,185.45,13.69a6.69,6.69,0,0,0-12,0L155.25,50.21,116.49,37.29A6.69,6.69,0,0,0,108,45.76L121,84.48,84.43,102.76a6.7,6.7,0,0,0-3,9,6.62,6.62,0,0,0,3,3L121,133,108,171.71a6.68,6.68,0,0,0,8.46,8.46l38.73-12.92,18.24,36.53a6.7,6.7,0,0,0,12,0l18.24-36.53,38.73,12.92a6.66,6.66,0,0,0,8.44-8.45L237.91,133l36.53-18.24a6.7,6.7,0,0,0,.08-12Zm-60.13,40.89a49.37,49.37,0,1,1,0-69.82h0A49.43,49.43,0,0,1,214.37,143.64Z"/><path class="cls-2" d="M147.08,259.7c-5.25,12.43-13.55,14.95-14.63,24-1,8,4.49,15.27,12.17,16.18s14.68-4.82,15.64-12.85c1.09-9.1-6.38-13.43-8.55-26.8a2.41,2.41,0,0,0-4.63-.55ZM100.91,235c-5.3,12.56-13.68,15.11-14.78,24.27-1,8.11,4.54,15.42,12.3,16.35s14.84-4.88,15.81-13c1.1-9.19-6.46-13.57-8.64-27.07a2.44,2.44,0,0,0-4.69-.56ZM49.77,261c-4.87,11.52-12.56,13.86-13.56,22.27-.89,7.44,4.16,14.15,11.28,15S61.1,293.74,62,286.3c1-8.43-5.92-12.45-7.93-24.84a2.23,2.23,0,0,0-2.5-1.92A2.2,2.2,0,0,0,49.77,261Zm124-35.67C169,236.53,161.5,238.81,160.52,247a13,13,0,0,0,11,14.64c6.94.83,13.28-4.37,14.15-11.63,1-8.23-5.78-12.15-7.74-24.25a2.18,2.18,0,0,0-4.19-.5Z"/><path class="cls-3" d="M194.29,132.67c-.23,0-.43.08-.62.08a30,30,0,0,0,.62-6.33,31.12,31.12,0,0,0-55.07-20,43.61,43.61,0,0,0-82.43,20v0a45.13,45.13,0,0,0,.82,8.28,37.4,37.4,0,0,0,11.68,73h125a37.5,37.5,0,0,0,0-75Z"/></svg>