<svg id="Layer_1" data-name="Layer 1" xmlns="http://www.w3.org/2000/svg" viewBox="0 0 310 310"><defs><style>.cls-1{fill:#ffa726;}.cls-2{fill:#0090d1;}</style></defs><path class="cls-1" d="M106.26,72.72a37.65,37.65,0,1,0,37.64,37.65h0A37.71,37.71,0,0,0,106.26,72.72Zm96.61,31.57L165.74,85.74l13.13-39.37a6.78,6.78,0,0,0-8.59-8.59L130.92,50.92,112.34,13.75a6.81,6.81,0,0,0-12.16,0L81.64,50.88,42.25,37.74a6.8,6.8,0,0,0-8.61,8.61L46.78,85.71,9.65,104.3a6.81,6.81,0,0,0,0,12.16L46.78,135,33.64,174.38A6.8,6.8,0,0,0,42.25,183l39.36-13.14L100.15,207a6.81,6.81,0,0,0,12.16,0l18.55-37.13L170.22,183a6.78,6.78,0,0,0,8.59-8.59L165.67,135l37.13-18.55a6.8,6.8,0,0,0,.08-12.19Zm-61.13,41.56a50.18,50.18,0,1,1,0-71h0A50.23,50.23,0,0,1,141.74,145.85Z"/><path class="cls-2" d="M266.13,187.09a32.68,32.68,0,0,0,.47-3.4c0-21.38-16.83-38.77-37.49-38.77a36.72,36.72,0,0,0-20,6.06c-10.31-23.5-33.1-40-59.7-40-36.2,0-65.62,30.35-65.62,67.85,0,1.81.42,3.51.53,5.27-29.06,2.24-52.09,27.07-52.09,57.73C32.27,274,57.47,300,88.52,300H247.86c31.05,0,56.24-26.05,56.24-58.15a57.82,57.82,0,0,0-38-54.76Z"/></svg>