<svg id="Layer_1" data-name="Layer 1" xmlns="http://www.w3.org/2000/svg" viewBox="0 0 310 310"><defs><style>.cls-1{fill:#004061;}.cls-2{fill:#ffa726;}</style></defs><path class="cls-1" d="M211,196.32a6.41,6.41,0,0,1-6.41-6.4c0-2.33,3.31-8.53,6.41-13.52,3.1,5,6.4,11.19,6.4,13.52A6.41,6.41,0,0,1,211,196.32Zm-63,5.3a1.49,1.49,0,0,0-.24,1.59,1.47,1.47,0,0,0,1.34.85h16.27L97.57,276.81l40.21-57.87a1.47,1.47,0,0,0,.1-1.51,1.48,1.48,0,0,0-1.3-.78H106.85l38.38-45.84h30.09Zm79.5-35.75H68.19a48,48,0,0,1-5-95.77l2.2-.51V67.36a48,48,0,0,1,90.81-21.68l.93,1.82,2-.57A47.56,47.56,0,0,1,172.43,45a48.08,48.08,0,0,1,42,24.78l.91,1.62,1.79-.41c30.8-6.78,58.43,17,58.43,46.86A48.07,48.07,0,0,1,227.55,165.87Zm51.2-61.31C272,78.8,246.36,60.5,217.86,65.82a52.76,52.76,0,0,0-58.23-24.17,53.08,53.08,0,0,0-13.47-15.86,33.5,33.5,0,0,1,58.36,2.64l.93,1.83,2-.57a33.82,33.82,0,0,1,38.79,16l.89,1.61,1.79-.39a33.55,33.55,0,0,1,29.86,57.64Z"/><path class="cls-1" d="M93.86,203.33c0-5.39-7.78-17.25-9.35-19.58l-1.94-2.88-1.95,2.88c-1.55,2.33-9.35,14.19-9.35,19.58a11.3,11.3,0,0,0,22.59,0Z"/><path class="cls-2" d="M172.33,226a.82.82,0,0,0-.65.31l-24.23,28.93a.85.85,0,0,0,.66,1.39H165.6l-29.24,42.08a.85.85,0,0,0,.16,1.15.83.83,0,0,0,.54.19.86.86,0,0,0,.61-.27l48.91-52.44a.85.85,0,0,0,.16-.92.84.84,0,0,0-.78-.51h-9.54l16.38-18.49a.89.89,0,0,0,.14-.92.86.86,0,0,0-.78-.51H172.33Z"/></svg>