<svg id="Layer_1" data-name="Layer 1" xmlns="http://www.w3.org/2000/svg" viewBox="0 0 310 310"><defs><style>.cls-1{fill:#00c8f5;}.cls-2{fill:#1490cf;}</style></defs><path class="cls-1" d="M108.72,217.24c-.4-1-1.59-1.3-4-1.3-4.13.33-11.44,14.89-11.07,5.83-6.24-3.56-.56,10.36-7.25,11.65-4.21,4.53-2.27-2.91-2.7-5.18-.68-3.23.84-5.5,3.24-7.12l6.67-6.79c-3.34-8.74-11.6,9.71-9.61-1,1.58-3.23-1-7.76-3.52-8.09h0a2.56,2.56,0,0,0-1.87,1,3.75,3.75,0,0,0-1.4,2h0a9.64,9.64,0,0,0-.48,1.29h0a5.39,5.39,0,0,0-.22,1.3h.06a6.51,6.51,0,0,0,0,1.29h0a6.45,6.45,0,0,0,.35,1.3h0a11.77,11.77,0,0,1,.25,2.58l.05.33s-.12.32-.2.32-.21.33-.35.33-.29-.33-.47-.33c-.56-.32-1.26-1.29-2.1-1.94-1.09-1-2.4-2.27-3.59-2.59a3.37,3.37,0,0,0-1.78.32c-.27,0-.49.33-.74.65s-.51,1-.74,1.3L74,221.12A8.14,8.14,0,0,1,76.8,224a7.15,7.15,0,0,1,.37,1,5.39,5.39,0,0,1,.2,1,6.85,6.85,0,0,1-.15,2.26,10,10,0,0,0,0,2.27c0,.65,0,1,0,1.3,0,.64.1,1.29.08,1.61a3.53,3.53,0,0,1-.12,1c-.15.33-.44.33-.85.33s-1-.65-1.73-1.3h-.06a10.12,10.12,0,0,1-1.93-1,20.84,20.84,0,0,1-1.13-1.94,13.06,13.06,0,0,1-.46-2.27h0c0-.64,0-1-.07-1.29s0-.65,0-1.3l-.06-1c0-.32-.12-1-.16-1.29,0,0-.09,0-.12-.33-.3-1.61-1-2.58-3.16-1.29h.05a8.55,8.55,0,0,1-.05,1.29s.05,0,.05.33-.15.32-.23.65a3,3,0,0,1-.29.64h-.49a3,3,0,0,1-1.29-.64c-1.43-1.3-3.34-3.89-5.21-5.83-1.26-1.3-2.51-2.27-3.55-2.27,0,0,0-.32,0-.32-2.42,0-3.53.65-3.89,1.62a3.7,3.7,0,0,0-.19,1s.07.32.14.65a14.24,14.24,0,0,0,.86,2.26A24.56,24.56,0,0,0,56.52,225a22.42,22.42,0,0,0,3.57,2.91c1.38,1,2,1.62,2.09,1.94,0,0,0,.33-.07.33-.37.64-2.87.32-4.12,1a3,3,0,0,0-.59,1c.1.32.25.32.41.65a4.1,4.1,0,0,0,2,1.29c1.71.32,4,0,6,.32.67.33,1.29.33,1.87.65A4,4,0,0,1,69.83,237a11,11,0,0,0,.44,1.3,4.89,4.89,0,0,1,1.44,1,1.56,1.56,0,0,1,.46,1h0s-.08,0-.18.32c-1,.33-4.35-.32-5.87,0a5.92,5.92,0,0,1-3.39,0,9.23,9.23,0,0,1-2.88-1.29c-.42-.32-.86-.65-1.25-1s-.87-.65-1.26-1A21.93,21.93,0,0,0,55,234.72a6.93,6.93,0,0,0-.33-1,10.33,10.33,0,0,0-.6-1c-.18,0-.39-.32-.59-.64a.74.74,0,0,1-.71-.33H52a4.87,4.87,0,0,0-2.15,0,5.3,5.3,0,0,0-1,1c-.14,0-.26.33-.34.33a2.12,2.12,0,0,0-.15.65h0a2.8,2.8,0,0,0,.08.64,3.46,3.46,0,0,0,1.7,2.27c1.89,1,2.79,1.94,3,2.59.05,0,0,.32,0,.32s0,.33-.07.33H53a4.1,4.1,0,0,1-2.35.64H45.09a2.81,2.81,0,0,0-2.28,1h-.18a2.61,2.61,0,0,0-.89,1s0,.33,0,.33-.15.32-.15.32l.05.33s.07.32.13.64c.25,1,1.09,1.62,2.22,2.59a3.61,3.61,0,0,0,1.8.65,4.7,4.7,0,0,0,4.17,0c2.55-.65,3.45-.32,3.49,0a1.51,1.51,0,0,1-.67,1,5,5,0,0,1-1.55,1.62c-.52.65-1.07,1.29-1.51,1.94h0a13,13,0,0,0-1,1.62,3.2,3.2,0,0,0-.09,1h.06c0,.32,0,.32.05.32a2.74,2.74,0,0,0,2.33,2l6.67-6.48s0,0,0-.32c.45-.32.87-1,1.38-1.3A6.82,6.82,0,0,1,64.74,247c1.73.32,5.62-.65,6.57.32h.15c0,.32.05.32.06.32s0,0-.08.33A4.62,4.62,0,0,1,70,249.61H70c-.07.64-.2,1-.35,1-2,4.2-10.45,1.61-11.67,3.88-.08,0-.19.32-.2.65h0a2,2,0,0,0,0,.65,3.24,3.24,0,0,0,.48,1h0a4.53,4.53,0,0,1,2.35.32.6.6,0,0,1,.64.65c-.25,1.94-7.37,6.15-8.81,9.38-.11,0-.24.33-.27.65h0a11,11,0,0,0,0,1.62h.06a5.72,5.72,0,0,0,.24,1s0,.32,0,.32c.27.33.67,1,1.13,1,2.84,1.29,9-4.54,10.74-7.45,1.14-1.62,1.77-2.26,2.13-2.26.13.32.23.32.31.64h.05a9.78,9.78,0,0,1,.15,1.3,5.41,5.41,0,0,0,1,2.91h.47c.39.32.84.32,1.5,0,0-.32,0-.32,0-.32,0-.65,0-1.3,0-1.95,0,0,0,0,0-.32,0-.65.15-1.29.25-1.94h0c.11-.65.22-1.3.39-1.94a7.81,7.81,0,0,1,.61-1.94,11.35,11.35,0,0,1,1.79-3.24c.14,0,.23-.33.38-.65a16.1,16.1,0,0,1,1.47-1.29,21.86,21.86,0,0,1,1.94-1.62l0,11.33c-1.38,2.26-4.08,4.2-6,6.47a3.54,3.54,0,0,0-1.76,1.3c-.18,0-.39.32-.52.32s0,0,0,.32c-.14,0-.25.33-.33.65h0a2.62,2.62,0,0,0-.22,1,2.25,2.25,0,0,0,.4,1.3,1.55,1.55,0,0,0,1.39,1,.64.64,0,0,0,.65.32,3.19,3.19,0,0,0,1.49-.65,3.9,3.9,0,0,0,1.61-1.62A13.34,13.34,0,0,0,75,271.94c.65-.65,1.17-1,1.49-1.29.12,0,.25.32.33.32a2.43,2.43,0,0,1,.31,1.29c0,.65.07,1.62,0,2.27,0,1-.1,1.94-.06,2.91h.05a14.27,14.27,0,0,0,.29,2.59,6.69,6.69,0,0,0,1,1.94c.24.33.48.33.81.65.36,0,.73.33,1.21.33,7.06,0-.26-18.78,6.69-9.72,4.4,5.51,8.39-1.61,2.65-3.88-1.91-2.27-4.7-3.88-6.08-6.47l0-11c5.66,3.24,7,8.74,7,14.89,4.91,2.27,1.08-9.06,5.63-2.59,2.35,3.89,12.49,12.95,12.35,3.56-.59-3.88-15.2-11.33-6-11,3.67-6.15-10.48-.33-11.59-7.12-4.64-4.21,2.64-2,5.22-2.59,3.06-.65,5.24,1,7,3.23l6.69,6.48c8.8-3.24-9.72-11.33,1.16-9.39,5.27,2.26,12.76-5.18,4.74-6.8-4.25.33-12.68.33-5.1-3.88,5.63-4.21-3.17-7.77-4.8-1.94-3,3.23-6.13,7.12-11,5.82-2.42-.32-9.54,1.3-4.27-2.26,2-6.8,11.26-1.62,12.94-6.15-.88-2.59-8.26,0-2.72-4.21,3-1.62,8.94-7.77,7.76-10.68Z"/><path class="cls-1" d="M190.2,234.29c-.4-1-1.59-1.29-3.95-1.29-4.12.32-11.43,14.89-11.07,5.83-6.24-3.57-.56,10.35-7.24,11.65-4.22,4.53-2.27-2.92-2.71-5.18-.68-3.24.85-5.5,3.25-7.12l6.67-6.8c-3.34-8.74-11.61,9.71-9.62-1,1.59-3.24-1-7.77-3.52-8.09h0a2.52,2.52,0,0,0-1.86,1,3.66,3.66,0,0,0-1.4,1.94h0a9.27,9.27,0,0,0-.48,1.3h0a5.4,5.4,0,0,0-.21,1.29h0a6.61,6.61,0,0,0,0,1.3h.06a5.6,5.6,0,0,0,.34,1.29h.05a12.11,12.11,0,0,1,.26,2.59l.05.32s-.13.33-.2.33-.22.32-.36.32-.28-.32-.47-.32c-.55-.33-1.25-1.3-2.09-2-1.1-1-2.4-2.26-3.6-2.58a3.41,3.41,0,0,0-1.78.32c-.27,0-.49.32-.73.65s-.52,1-.74,1.29l6.63,6.8a8,8,0,0,1,2.76,2.91,6.48,6.48,0,0,1,.38,1,6.42,6.42,0,0,1,.05,3.24,9.82,9.82,0,0,0,0,2.27c0,.64,0,1,0,1.29,0,.65.1,1.29.08,1.62a4,4,0,0,1-.13,1c-.14.32-.43.32-.84.32s-1-.64-1.74-1.29H156a12,12,0,0,1-1.94-1,8,8,0,0,1-.6-1,7.85,7.85,0,0,1-.53-1,13.7,13.7,0,0,1-.45-2.26h-.05c-.05-.65,0-1-.07-1.3s0-.64,0-1.29c0-.32,0-.65-.07-1s-.11-1-.16-1.3c0,0-.09,0-.11-.32-.31-1.62-1-2.59-3.16-1.3h0a8.37,8.37,0,0,1-.06,1.3s0,0,0,.32-.14.33-.22.65a5.21,5.21,0,0,1-.29.65h-.5a3.1,3.1,0,0,1-1.29-.65c-1.43-1.29-3.34-3.88-5.21-5.83-1.25-1.29-2.51-2.26-3.54-2.26,0,0,0-.33-.05-.33-2.43,0-3.53.65-3.9,1.62a3.78,3.78,0,0,0-.19,1s.07.33.15.65a12.28,12.28,0,0,0,.86,2.27,25,25,0,0,0,3.27,3.88,21.36,21.36,0,0,0,3.57,2.91c1.39,1,2,1.62,2.1,1.95,0,0,0,.32-.08.32-.37.65-2.87.32-4.11,1a3.13,3.13,0,0,0-.6,1c.11.33.25.33.41.65a4.06,4.06,0,0,0,2,1.29c1.71.33,4,0,6,.33.66.32,1.29.32,1.87.65a4,4,0,0,1,2.14,1.94,12.9,12.9,0,0,0,.44,1.29,5.32,5.32,0,0,1,1.44,1,1.53,1.53,0,0,1,.46,1h0c-.05,0-.08,0-.18.33-1,.32-4.36-.33-5.87,0a6.13,6.13,0,0,1-3.4,0,9.59,9.59,0,0,1-2.88-1.3c-.42-.32-.85-.64-1.25-1s-.86-.64-1.26-1a22.75,22.75,0,0,0-2.26-2.59,6.23,6.23,0,0,0-.34-1,10.2,10.2,0,0,0-.6-1c-.17,0-.38-.32-.58-.65a.76.76,0,0,1-.72-.32h-.79c-.74-.33-1.52,0-2.14,0a5.36,5.36,0,0,0-1.06,1c-.13,0-.25.32-.34.32a2.65,2.65,0,0,0-.15.65h0a3,3,0,0,0,.08.65,3.47,3.47,0,0,0,1.7,2.26c1.9,1,2.79,1.95,3,2.59.05,0,0,.33,0,.33s0,.32-.08.32h-.09a4,4,0,0,1-2.34.65h-5.52a2.8,2.8,0,0,0-2.29,1h-.17a2.66,2.66,0,0,0-.9,1s0,.32,0,.32-.15.33-.15.33l0,.32s.07.32.13.65c.25,1,1.1,1.62,2.23,2.59a3.66,3.66,0,0,0,1.79.64,4.7,4.7,0,0,0,4.17,0c2.55-.64,3.45-.32,3.5,0a1.61,1.61,0,0,1-.67,1,5,5,0,0,1-1.56,1.61c-.51.65-1.06,1.3-1.5,1.95h0a13.54,13.54,0,0,0-1,1.61,3.61,3.61,0,0,0-.08,1h0c0,.32,0,.32.05.32a2.72,2.72,0,0,0,2.34,1.94l6.67-6.47s0,0,0-.33c.45-.32.88-1,1.38-1.29a6.82,6.82,0,0,1,5.65-1.62c1.74.32,5.62-.65,6.58.32H153c0,.33,0,.33.05.33s0,0-.07.32a4.71,4.71,0,0,1-1.46,1.62h.05c-.07.65-.2,1-.35,1-2,4.21-10.45,1.62-11.66,3.89-.08,0-.19.32-.21.64h.06a1.54,1.54,0,0,0,0,.65,3.09,3.09,0,0,0,.47,1h0a4.55,4.55,0,0,1,2.36.32.6.6,0,0,1,.63.65c-.25,1.94-7.36,6.15-8.8,9.39-.12,0-.24.32-.28.65h0a12.11,12.11,0,0,0,.05,1.61h0a5.87,5.87,0,0,0,.25,1s0,.32.05.32c.26.32.67,1,1.12,1,2.85,1.3,9-4.53,10.75-7.44,1.13-1.62,1.77-2.27,2.12-2.27.14.32.24.32.31.65h0a9,9,0,0,1,.16,1.29,5.44,5.44,0,0,0,1,2.92h.47c.39.32.84.32,1.5,0,0-.33,0-.33,0-.33,0-.65,0-1.29,0-1.94,0,0,0,0,0-.32,0-.65.14-1.3.24-2h0c.1-.64.22-1.29.38-1.94a7.77,7.77,0,0,1,.62-1.94,11,11,0,0,1,1.79-3.24c.14,0,.22-.32.38-.64a14.6,14.6,0,0,1,1.46-1.3c.58-.65,1.24-1,1.94-1.62v11.33c-1.38,2.27-4.09,4.21-6,6.48a3.53,3.53,0,0,0-1.76,1.29c-.17,0-.39.32-.52.32s0,0,0,.33c-.15,0-.25.32-.33.64h0a2.47,2.47,0,0,0-.21,1,2.14,2.14,0,0,0,.4,1.29,1.52,1.52,0,0,0,1.39,1,.62.62,0,0,0,.65.33,3.31,3.31,0,0,0,1.48-.65,4,4,0,0,0,1.61-1.62,12.13,12.13,0,0,0,1.15-1.29c.66-.65,1.17-1,1.5-1.3.11,0,.25.32.33.32a2.47,2.47,0,0,1,.31,1.3c0,.65.07,1.62.05,2.26,0,1-.1,1.95-.07,2.92h0a15.22,15.22,0,0,0,.29,2.59,7,7,0,0,0,1,1.94c.25.32.48.32.82.65.36,0,.72.32,1.21.32,7.06,0-.27-18.77,6.68-9.71,4.4,5.5,8.4-1.62,2.65-3.88-1.91-2.27-4.69-3.89-6.08-6.48l0-11c5.67,3.23,7,8.74,7,14.89,4.92,2.26,1.08-9.07,5.63-2.59,2.35,3.88,12.5,12.94,12.35,3.56-.59-3.89-15.2-11.33-6-11,3.67-6.15-10.49-.32-11.59-7.12-4.65-4.21,2.63-1.94,5.21-2.59,3.07-.65,5.24,1,7,3.24l6.69,6.47c8.8-3.24-9.71-11.33,1.17-9.39,5.26,2.27,12.75-5.17,4.73-6.79-4.25.32-12.67.32-5.1-3.89,5.63-4.21-3.16-7.77-4.8-1.94-3,3.24-6.13,7.12-11,5.83-2.43-.33-9.55,1.29-4.27-2.27,1.94-6.8,11.26-1.62,12.94-6.15-.89-2.59-8.27,0-2.73-4.21,3-1.61,8.95-7.77,7.76-10.68Z"/><path class="cls-1" d="M267.89,212.5c-.39-1-1.58-1.29-3.94-1.29-4.13.32-11.44,14.89-11.07,5.82-6.24-3.56-.56,10.36-7.25,11.66-4.21,4.53-2.27-2.92-2.7-5.18-.68-3.24.84-5.51,3.24-7.12l6.67-6.8c-3.34-8.74-11.6,9.71-9.61-1,1.58-3.24-1-7.77-3.52-8.09h0a2.53,2.53,0,0,0-1.87,1,3.72,3.72,0,0,0-1.4,1.94h0a9.64,9.64,0,0,0-.48,1.29h0a5.49,5.49,0,0,0-.22,1.3h.06a6.51,6.51,0,0,0,0,1.29h0a5.71,5.71,0,0,0,.35,1.3h.05a11.8,11.8,0,0,1,.25,2.59l.05.32s-.12.32-.2.32-.22.33-.35.33-.29-.33-.47-.33c-.56-.32-1.26-1.29-2.1-1.94-1.09-1-2.4-2.26-3.59-2.59a3.29,3.29,0,0,0-1.78.33c-.27,0-.49.32-.74.64s-.51,1-.74,1.3l6.64,6.8A8,8,0,0,1,236,219.3a7.7,7.7,0,0,1,.37,1,5.57,5.57,0,0,1,.2,1,6.91,6.91,0,0,1-.15,2.27,9.35,9.35,0,0,0,0,2.26c0,.65,0,1,0,1.3,0,.64.1,1.29.08,1.62a4.09,4.09,0,0,1-.12,1c-.15.32-.44.32-.85.32s-1-.65-1.74-1.29h-.05a10.7,10.7,0,0,1-1.93-1,7.81,7.81,0,0,1-.61-1,7,7,0,0,1-.52-1,13,13,0,0,1-.46-2.26h-.05c0-.65,0-1-.07-1.3s0-.65,0-1.29c0-.33,0-.65-.07-1s-.11-1-.15-1.3c0,0-.09,0-.12-.32-.3-1.62-1-2.59-3.16-1.3h.05a8.77,8.77,0,0,1-.05,1.3s.05,0,.05.32-.15.32-.23.65a3.33,3.33,0,0,1-.29.65h-.49a3,3,0,0,1-1.29-.65c-1.43-1.3-3.34-3.89-5.21-5.83-1.26-1.29-2.51-2.26-3.55-2.26,0,0,0-.33-.05-.33-2.42,0-3.53.65-3.89,1.62a3.7,3.7,0,0,0-.19,1s.07.33.14.65a13,13,0,0,0,.86,2.26,24.56,24.56,0,0,0,3.28,3.89,22.42,22.42,0,0,0,3.57,2.91c1.38,1,2,1.62,2.09,1.94,0,0,0,.33-.07.33-.37.65-2.87.32-4.12,1a3.16,3.16,0,0,0-.59,1c.1.32.25.32.41.65a4.1,4.1,0,0,0,2,1.29c1.71.33,4,0,6,.33.67.32,1.29.32,1.87.64a4,4,0,0,1,2.15,1.95,9.19,9.19,0,0,0,.44,1.29,5.1,5.1,0,0,1,1.44,1,1.58,1.58,0,0,1,.46,1h0c-.05,0-.08,0-.18.33-1,.32-4.35-.33-5.87,0a6.09,6.09,0,0,1-3.39,0,9.48,9.48,0,0,1-2.88-1.3c-.42-.32-.86-.65-1.25-1s-.87-.65-1.27-1a21.81,21.81,0,0,0-2.26-2.59,7.4,7.4,0,0,0-.33-1,9.08,9.08,0,0,0-.6-1c-.18,0-.39-.33-.59-.65a.75.75,0,0,1-.71-.32h-.79c-.74-.33-1.52,0-2.15,0a4.76,4.76,0,0,0-1,1c-.14,0-.26.32-.34.32a2.12,2.12,0,0,0-.15.65h.05a3,3,0,0,0,.08.65,3.46,3.46,0,0,0,1.7,2.26c1.89,1,2.79,1.94,3,2.59,0,0,0,.32,0,.32s0,.33-.07.33h-.09a4.1,4.1,0,0,1-2.35.64h-5.52a2.79,2.79,0,0,0-2.28,1h-.18a2.59,2.59,0,0,0-.9,1s0,.32,0,.32-.15.32-.15.32l.05.33s.07.32.13.65c.25,1,1.09,1.61,2.22,2.58a3.61,3.61,0,0,0,1.8.65,4.7,4.7,0,0,0,4.17,0c2.55-.65,3.45-.32,3.49,0a1.53,1.53,0,0,1-.67,1,5,5,0,0,1-1.55,1.62c-.52.65-1.07,1.3-1.51,1.94h0a13.91,13.91,0,0,0-1,1.62,3.22,3.22,0,0,0-.09,1h0c0,.33.05.33.06.33a2.73,2.73,0,0,0,2.33,1.94l6.67-6.47s0,0,0-.33c.45-.32.87-1,1.38-1.29a6.79,6.79,0,0,1,5.65-1.62c1.73.32,5.62-.65,6.57.32h.15c0,.33.05.33.05.33a.84.84,0,0,0-.07.32,4.62,4.62,0,0,1-1.45,1.62h.05c-.07.65-.2,1-.35,1-2,4.21-10.46,1.62-11.67,3.88-.08,0-.19.33-.2.65h.05a2,2,0,0,0,0,.65,3.24,3.24,0,0,0,.48,1h.05a4.53,4.53,0,0,1,2.35.32.61.61,0,0,1,.64.65c-.25,1.94-7.37,6.15-8.81,9.39-.12,0-.24.32-.27.64h.05a11,11,0,0,0,0,1.62h0a6.58,6.58,0,0,0,.25,1s0,.33.05.33c.27.32.67,1,1.13,1,2.84,1.29,9-4.53,10.74-7.45,1.14-1.62,1.77-2.26,2.13-2.26.13.32.23.32.3.64h.06a9.78,9.78,0,0,1,.15,1.3,5.38,5.38,0,0,0,1,2.91H228c.39.33.84.33,1.5,0,0-.32,0-.32,0-.32,0-.65,0-1.3,0-1.94,0,0,0,0,0-.33,0-.64.15-1.29.24-1.94h0a19,19,0,0,1,.39-1.94,7.81,7.81,0,0,1,.61-1.94,11.35,11.35,0,0,1,1.79-3.24c.14,0,.23-.32.38-.65a16.1,16.1,0,0,1,1.47-1.29,23.72,23.72,0,0,1,1.94-1.62l0,11.33c-1.38,2.26-4.08,4.21-6,6.47a3.6,3.6,0,0,0-1.76,1.3c-.18,0-.39.32-.52.32s0,0,0,.33c-.14,0-.25.32-.33.64h0a2.67,2.67,0,0,0-.22,1,2.25,2.25,0,0,0,.4,1.3,1.54,1.54,0,0,0,1.39,1,.64.64,0,0,0,.65.32,3.27,3.27,0,0,0,1.49-.64A4.09,4.09,0,0,0,233,268.5a13.41,13.41,0,0,0,1.15-1.3c.65-.64,1.16-1,1.49-1.29.12,0,.25.32.33.32a2.47,2.47,0,0,1,.31,1.3c0,.64.07,1.61.05,2.26,0,1-.1,1.94-.06,2.92h.05a14.16,14.16,0,0,0,.29,2.58,6.87,6.87,0,0,0,1,1.95c.24.32.48.32.81.64.36,0,.73.33,1.21.33,7.06,0-.26-18.78,6.69-9.71,4.4,5.5,8.39-1.62,2.65-3.89-1.91-2.26-4.7-3.88-6.08-6.47l0-11c5.66,3.24,7,8.74,7,14.89,4.91,2.27,1.08-9.06,5.63-2.59,2.35,3.89,12.49,12.95,12.35,3.56-.59-3.88-15.2-11.32-6-11,3.67-6.15-10.48-.32-11.59-7.12-4.65-4.21,2.63-1.94,5.22-2.59,3.06-.65,5.23,1,7,3.24l6.69,6.47c8.8-3.24-9.72-11.33,1.16-9.39,5.27,2.27,12.76-5.18,4.74-6.8-4.25.33-12.68.33-5.1-3.88,5.63-4.21-3.17-7.77-4.81-1.94-3,3.24-6.12,7.12-11,5.82-2.42-.32-9.54,1.3-4.27-2.26,2-6.8,11.26-1.62,12.94-6.15-.89-2.59-8.26,0-2.72-4.21,3-1.62,8.94-7.77,7.75-10.68Z"/><path class="cls-2" d="M250.87,84.48c.21-1.1.36-2.21.46-3.32,0-20.93-16.48-37.95-36.7-37.95a35.78,35.78,0,0,0-19.53,5.93C185,26.13,162.7,10,136.66,10c-35.43,0-64.23,29.71-64.23,66.41,0,1.78.41,3.44.52,5.16-28.44,2.19-51,26.5-51,56.51C22,169.5,46.63,195,77,195H233c30.39,0,55-25.5,55-56.92a56.61,56.61,0,0,0-37.16-53.6Z"/></svg>