<svg id="Layer_1" data-name="Layer 1" xmlns="http://www.w3.org/2000/svg" viewBox="0 0 310 310"><defs><style>.cls-1{fill:#004061;}.cls-2{fill:#106e9e;}</style></defs><path class="cls-1" d="M268.48,80.74a30.21,30.21,0,0,0,.44-3.15c0-19.88-15.66-36-34.86-36a34,34,0,0,0-18.56,5.63C205.92,25.32,184.73,10,160,10c-33.66,0-61,28.22-61,63.09,0,1.68.38,3.26.49,4.89-27,2.09-48.43,25.18-48.43,53.68,0,29.85,23.43,54.06,52.3,54.06H251.49c28.87,0,52.29-24.21,52.29-54.06a53.78,53.78,0,0,0-35.3-50.92Z"/><path class="cls-2" d="M263.57,174.84c.23-1.24.41-2.49.52-3.76,0-23.7-18.67-43-41.57-43a40.62,40.62,0,0,0-22.11,6.71c-11.43-26-36.69-44.32-66.17-44.32-40.13,0-72.74,33.64-72.74,75.21,0,2,.46,3.89.59,5.84-32.21,2.49-57.74,30-57.74,64C4.35,271.13,32.28,300,66.7,300H243.31c34.41,0,62.34-28.87,62.34-64.45,0-28.27-17.66-52-42.08-60.71Z"/></svg>