<svg id="Layer_1" data-name="Layer 1" xmlns="http://www.w3.org/2000/svg" viewBox="0 0 310 310"><defs><style>.cls-1{fill:#ffa726;}</style></defs><path class="cls-1" d="M155,100.62A54.38,54.38,0,1,0,209.37,155h0A54.46,54.46,0,0,0,155,100.62Zm139.57,45.6-53.64-26.79,19-56.88a9.8,9.8,0,0,0-12.41-12.41l-56.87,19-26.85-53.7a9.83,9.83,0,0,0-17.56,0L119.42,69.06l-56.91-19A9.82,9.82,0,0,0,50.08,62.51l19,56.88L15.42,146.24a9.83,9.83,0,0,0,0,17.56l53.64,26.79-19,56.9a9.82,9.82,0,0,0,12.43,12.43l56.87-19,26.79,53.64a9.83,9.83,0,0,0,17.56,0l26.8-53.64,56.87,19a9.79,9.79,0,0,0,12.4-12.41l-19-56.88,53.65-26.79a9.82,9.82,0,0,0,.11-17.62Zm-88.31,60.05a72.5,72.5,0,1,1,0-102.54h0A72.59,72.59,0,0,1,206.25,206.27Z"/></svg>