<svg id="Layer_1" data-name="Layer 1" xmlns="http://www.w3.org/2000/svg" viewBox="0 0 310 310"><defs><style>.cls-1{fill:#004061;}.cls-2{fill:none;stroke:#2e3192;stroke-linecap:round;stroke-miterlimit:10;stroke-width:10px;}</style></defs><path class="cls-1" d="M261.52,92.75a32.73,32.73,0,0,0,.51-3.69c0-23.25-18.31-42.16-40.78-42.16a39.79,39.79,0,0,0-21.7,6.59C188.34,27.92,163.55,10,134.63,10,95.25,10,63.26,43,63.26,83.79c0,2,.45,3.82.58,5.74C32.23,92,7.19,119,7.19,152.31c0,34.92,27.4,63.24,61.17,63.24H241.65c33.76,0,61.16-28.32,61.16-63.24a62.91,62.91,0,0,0-41.29-59.56Z"/><line class="cls-2" x1="69.29" y1="233.33" x2="240.71" y2="233.33"/><line class="cls-2" x1="121.67" y1="250" x2="228.81" y2="250"/><line class="cls-2" x1="80" y1="266.67" x2="187.14" y2="266.67"/><line class="cls-2" x1="124.05" y1="283.33" x2="231.19" y2="283.33"/><line class="cls-2" x1="114.52" y1="300" x2="221.67" y2="300"/></svg>