<svg id="Layer_1" data-name="Layer 1" xmlns="http://www.w3.org/2000/svg" viewBox="0 0 310 310"><defs><style>.cls-1{fill:#9a9da0;}.cls-2{fill:#0caae2;}.cls-3{fill:#1490cf;}</style></defs><path class="cls-1" d="M278.23,106.55c-39.86,20.9-88.35,4-108.31-37.74A87.79,87.79,0,0,1,164.2,8.88C126.31,30.62,111.34,80,130.84,120.81c20,41.74,68.46,58.64,108.31,37.73,21.41-11.22,36-31.06,41.76-53.49C280,105.56,279.14,106.07,278.23,106.55Z"/><path class="cls-2" d="M160.51,256.27c-5.55,13.14-14.32,15.81-15.46,25.4-1,8.49,4.75,16.14,12.87,17.11s15.53-5.1,16.54-13.59c1.15-9.62-6.75-14.2-9-28.34a2.55,2.55,0,0,0-4.91-.58ZM111.7,230.1c-5.61,13.29-14.47,16-15.63,25.67-1,8.58,4.8,16.31,13,17.29s15.69-5.16,16.72-13.73c1.16-9.72-6.83-14.35-9.14-28.64a2.57,2.57,0,0,0-5-.59ZM57.61,257.58c-5.15,12.19-13.28,14.67-14.34,23.56-.94,7.87,4.41,15,11.93,15.86s14.4-4.73,15.34-12.6c1.06-8.92-6.26-13.17-8.39-26.27a2.36,2.36,0,0,0-2.65-2A2.39,2.39,0,0,0,57.61,257.58Zm131.12-37.71c-5,11.9-13,14.31-14,23-.91,7.68,4.3,14.6,11.65,15.48s14.05-4.62,15-12.3c1-8.71-6.11-12.85-8.18-25.64a2.31,2.31,0,0,0-4.44-.53Z"/><path class="cls-3" d="M200.93,131.45c-.25,0-.45.08-.66.08a32.64,32.64,0,0,0,.66-6.69,32.91,32.91,0,0,0-58.24-21.15,46.11,46.11,0,0,0-87.17,21.1v0a47.74,47.74,0,0,0,.87,8.76,39.55,39.55,0,0,0,12.35,77.16H200.93a39.66,39.66,0,1,0,0-79.31Z"/></svg>